# xmcd
#
# Track frame offsets:
#	225
#	13543
#	26243
#	39934
#	53774
#	70684
#	84996
#	99666
#	116088
#	131405
#	145543
#	161314
#	174840
#	190910
#	205085
#	220068
#	235926
#	253165
#	268792
#	282371
#	295222
#	309902
#
# Disc length: 4314 seconds
#
# Revision: 0
# Processed by: cddbd v1.5.2PL0 Copyright (c) Steve Scherf et al.
# Submitted via: EasyCDDAExtractor 11.0.2.1
#
DISCID=3010d716
DTITLE=Various Artist - Disco Hits Of 80's [CD2)
DYEAR=1900
DGENRE=Disco
TTITLE0=INDEEP - Last Night A Dj Saved My Life
TTITLE1=DIVINE - Love Reaction
TTITLE2=LIME - Babe We Are Gonna Love Tonight
TTITLE3=MC BICKER and DJ SVEN - Holiday Rap
TTITLE4=LOLEATTA HOLLOWAY - Love Sensation
TTITLE5=RYAN PARIS - Dolce Vita
TTITLE6=KELLY MARIE - Feels Like I'm In Love
TTITLE7=PATRICK COWLEY and SYLVESTER - Do You Wanna Funk
TTITLE8=IMAGINATION - Music and Light
TTITLE9=GARY LOW - I Want You
TTITLE10=MALZOOM - And The Beat Goes On
TTITLE11=SCOTCH - Disco Band
TTITLE12=KEN LASZLO - Tonight
TTITLE13=FINZY KONTINI - Cha Cha Cha
TTITLE14=DEN HARROW - A Taste Of Love
TTITLE15=BLONDIE - Call Me
TTITLE16=STEVE KEKANA - Raising My Family
TTITLE17=MAGAZIN 60 - Top Connection
TTITLE18=DESIRELESS - Voyage Voyage
TTITLE19=LOS LOBOS - La Bamba
TTITLE20=THE SHORTS - Comment Ca'va
TTITLE21=HAROLD FALTERMEYER - Axel F
EXTD=
EXTT0=
EXTT1=
EXTT2=
EXTT3=
EXTT4=
EXTT5=
EXTT6=
EXTT7=
EXTT8=
EXTT9=
EXTT10=
EXTT11=
EXTT12=
EXTT13=
EXTT14=
EXTT15=
EXTT16=
EXTT17=
EXTT18=
EXTT19=
EXTT20=
EXTT21=
PLAYORDER=
